<svg width="11" height="11" viewBox="0 0 11 11" fill="none" xmlns="http://www.w3.org/2000/svg">
<path d="M2.19999 1.19L5.49999 4.49L8.79999 1.2C8.93139 1.0663 9.11269 0.9938 9.29999 1C9.67609 1.0243 9.97569 1.3239 9.99999 1.7C10.0018 1.8806 9.92949 2.0541 9.79999 2.18L6.48999 5.5L9.79999 8.82C9.92949 8.9459 10.0018 9.1194 9.99999 9.3C9.97569 9.6761 9.67609 9.9757 9.29999 10C9.11269 10.0062 8.93139 9.9337 8.79999 9.8L5.49999 6.51L2.20999 9.8C2.07859 9.9337 1.89729 10.0062 1.70999 10C1.32649 9.98 1.01999 9.6735 0.999995 9.29C0.998195 9.1094 1.07049 8.9359 1.19999 8.81L4.50999 5.5L1.18999 2.18C1.06409 2.0524 0.995495 1.8792 0.999995 1.7C1.02429 1.3239 1.32389 1.0243 1.69999 1C1.88579 0.9912 2.06689 1.06 2.19999 1.19Z" fill="white"/>
</svg>
